# xmcd
#
# Track frame offsets: 
#        150
#        14720
#        25040
#        41622
#        52567
#        68730
#        77292
#        90342
#        102695
#        116200
#        128515
#        140565
#        148112
#        162865
#        169940
#        183480
#        196027
#        208962
#        219932
#        236957
#        244285
#        258157
#        269680
#        280275
#
# Disc length: 3917 seconds
#
# Revision: 2
# Processed by: cddbd v1.5.2PL0 Copyright (c) Steve Scherf et al.
# Submitted via: ExactAudioCopy v0.95b1
#
DISCID=5e0f4b18
DTITLE=Lenoir, J. B. - Vietnam Blues
DYEAR=2004
DGENRE=Blues
TTITLE0=Alabama
TTITLE1=Mojo Boogie
TTITLE2=God's Word
TTITLE3=The Whale Has Swallowed Me
TTITLE4=Move This Rope
TTITLE5=I Feel So Good
TTITLE6=Alabama March
TTITLE7=Talk To Your Daughter
TTITLE8=Mississippi Road
TTITLE9=Good Advice
TTITLE10=Vietnam
TTITLE11=I Want To Go
TTITLE12=Down In Mississippi
TTITLE13=Slow Down Woman
TTITLE14=If I Get Lucky
TTITLE15=Shot On James Meredith
TTITLE16=Round And Round
TTITLE17=Voodoo Music
TTITLE18=Born Dead
TTITLE19=Leavin' Here
TTITLE20=Vietnam Blues
TTITLE21=How Much More
TTITLE22=Tax Payin' Blues
TTITLE23=Feelin' Good
EXTD=ECD 26068-2\n\nThis CD combines two full-length albums, "Alabama 
EXTD=Blues" (L+R 42.001) and "Down in Mississippi (L+R 42.102).\n\nJ.B
EXTD=Lenoir:  vocals, acoustic guitar\nFred Below:  drums\nWillie Di
EXTD=xon:  additional vocals
EXTT0=
EXTT1=
EXTT2=
EXTT3=
EXTT4=
EXTT5=
EXTT6=
EXTT7=
EXTT8=
EXTT9=
EXTT10=
EXTT11=
EXTT12=
EXTT13=
EXTT14=
EXTT15=
EXTT16=
EXTT17=
EXTT18=
EXTT19=
EXTT20=
EXTT21=
EXTT22=
EXTT23=
PLAYORDER=
